<svg version="1.2" xmlns="http://www.w3.org/2000/svg" viewBox="0 0 14 20" width="14" height="20">
	<style>
		.s0 { fill: #ff7d1a } 
	</style>
	<path class="s0" d="m8.22 18c4.76 0 7.52-0.75 7.52-4.61 0-3.4-3.38-4.17-6.66-4.68l-0.56-0.08-0.28-0.04-0.35-0.06c-2.7-0.4-3.18-0.79-3.18-1.47 0-0.48 0.49-1.33 2.84-1.33 2.45 0 3.49 0.65 3.49 1.87v0.13h4.28v-0.13c0-2.39-1.35-5.24-7.77-5.24-5.95 0-7.2 2.59-7.2 4.76 0 3.09 2.76 4.08 7.22 4.67q0.32 0.04 0.66 0.08c1.67 0.2 3.17 0.42 3.17 1.59 0 1.01-1.61 1.22-3.3 1.22-2.79 0-3.78-0.59-3.78-1.92v-0.14h-4.32v0.31 0.31c0.01 0.79 0.12 1.92 1.06 2.86 1.24 1.26 3.65 1.9 7.16 1.9zm13.21 0v-7.49c0-2.1 0.54-4.42 4.17-4.42 3.92 0 3.78 2.77 3.77 4.04v7.87h4.18v-7.77c0-2.26-0.18-7.76-6.73-7.76-2.78 0-4.19 0.91-5.2 2.28h-0.19v-2.28h-4.21v15.53zm21.96 0c5.09 0 7.79-2.07 8.22-5.41h-4.08c-0.38 1.02-1.63 1.72-4.14 1.72-2.72 0-3.96-1.03-4.25-3.1h12.53c0.24-2.13-0.03-5.42-3.03-7.44-1.31-0.91-3.06-1.46-5.25-1.46-5.24 0-8.34 2.77-8.34 7.84 0 5.17 3.02 7.85 8.34 7.85zm4.1-9.57h-8.19c0.49-1.58 1.76-2.44 4.09-2.44 2.99 0 3.75 1.27 4.1 2.44zm23.01 9.57v-15.54h-4.21v2.28h-0.17c-1.06-1.38-2.81-2.28-5.68-2.28-6.43 0-7.23 5.29-7.25 7.63v0.14c0 2.09 0.73 7.77 7.24 7.77 2.91 0 4.68-0.82 5.73-2.17h0.13v2.17zm-8.85-3.62c-4 0-4.45-3.04-4.45-4.15 0-1.21 0.43-4.15 4.46-4.15 3.63 0 4.37 2.04 4.37 4.15 0 2.35-0.74 4.15-4.38 4.15zm27.18 3.62l-6.53-9.05 6.59-6.48h-5.83l-6.84 6.75v-11.22h-4.18v19.95h4.18v-3.01l3.02-2.98 4.36 6.04zm9.9 0c5.1 0 7.79-2.07 8.22-5.41h-4.07c-0.39 1.02-1.63 1.72-4.15 1.72-2.72 0-3.96-1.03-4.25-3.1h12.53c0.24-2.13-0.03-5.42-3.03-7.44-1.31-0.91-3.05-1.46-5.25-1.46-5.24 0-8.33 2.77-8.33 7.84 0 5.17 3.02 7.85 8.33 7.85zm4.1-9.57h-8.19c0.49-1.58 1.77-2.44 4.09-2.44 3 0 3.76 1.27 4.1 2.44zm9.94 9.57v-6.97c0-2.1 0.93-4.54 4.05-4.54 1.33 0 2.39 0.23 2.78 0.34l0.67-3.97c-0.73-0.16-1.62-0.39-2.76-0.39-2.66 0-3.62 0.79-4.48 2.28h-0.26v-2.28h-4.21v15.53zm17.22 0c4.76 0 7.52-0.75 7.52-4.61 0-3.4-3.38-4.17-6.66-4.68l-0.56-0.08-0.28-0.04-0.35-0.06c-2.7-0.4-3.18-0.79-3.18-1.47 0-0.48 0.49-1.33 2.84-1.33 2.46 0 3.49 0.65 3.49 1.87v0.13h4.29v-0.13c0-2.39-1.35-5.24-7.78-5.24-5.95 0-7.2 2.59-7.2 4.76 0 3.09 2.76 4.08 7.22 4.67q0.32 0.04 0.66 0.08c1.67 0.2 3.17 0.42 3.17 1.59 0 1.01-1.61 1.22-3.29 1.22-2.8 0-3.79-0.59-3.79-1.92v-0.14h-4.32v0.31 0.31c0.01 0.79 0.12 1.92 1.06 2.86 1.24 1.26 3.65 1.9 7.16 1.9z"/>
</svg>